<svg width="122" height="108" viewBox="0 0 122 108" fill="none" xmlns="http://www.w3.org/2000/svg">
<path d="M121.831 70.3327C121.65 69.8932 103.639 26.147 100.101 17.2578C97.1782 9.9164 92.1984 8.27063 88.9713 8.45604L82.3919 1.51882C82.1681 1.28298 81.8959 1.0947 81.5927 0.965951C81.2895 0.8372 80.9619 0.770789 80.6307 0.770935H40.495C40.1402 0.772108 39.7902 0.849548 39.4703 0.99764C39.1504 1.14573 38.8686 1.36077 38.6453 1.62715L32.9261 8.45188C29.6925 8.31438 24.7903 9.99557 21.8995 17.2578C18.3619 26.147 0.341999 69.8932 0.16954 70.3327C-0.0643682 70.9003 -0.0559428 71.5342 0.19297 72.0958C0.441882 72.6573 0.910982 73.1006 1.49748 73.3285L21.0868 80.9469C21.3781 81.0612 21.69 81.1187 22.0045 81.1163C22.3189 81.1138 22.6298 81.0514 22.9192 80.9325C23.2086 80.8137 23.4709 80.6408 23.691 80.4237C23.9111 80.2067 24.0847 79.9498 24.2018 79.6678L33.256 57.9582L35.3751 67.237L26.0191 104.581C25.9339 104.921 25.9297 105.275 26.0066 105.616C26.0835 105.958 26.2396 106.278 26.4632 106.552C26.6868 106.827 26.9719 107.049 27.2972 107.202C27.6224 107.354 27.9793 107.433 28.3409 107.433H93.66C94.0221 107.434 94.3798 107.356 94.7058 107.204C95.0319 107.051 95.3179 106.829 95.5422 106.555C95.7664 106.28 95.9231 105.96 96.0004 105.618C96.0777 105.276 96.0735 104.921 95.9882 104.581L86.628 67.237L88.7449 57.9582L97.7991 79.6678C98.0357 80.2353 98.4958 80.6889 99.0783 80.9287C99.6608 81.1686 100.318 81.1751 100.906 80.9469L120.497 73.3285C121.085 73.1018 121.555 72.659 121.805 72.0973C122.056 71.5357 122.065 70.901 121.831 70.3327ZM61.5631 22.9263L48.8118 5.38742H72.4712L61.5631 22.9263ZM41.6354 5.38742H42.9719L58.8706 27.2615L54.8415 33.7404L36.9595 10.9789L41.6354 5.38742ZM20.6578 75.8013L5.48777 69.9036C9.16979 60.9602 23.2662 26.6866 26.3576 18.916C28.453 13.6538 31.3158 13.0454 32.6092 13.0621L52.1942 37.9861L38.5871 59.8602L36.7655 51.8856L35.1379 42.1068C35.0356 41.5018 34.6887 40.9608 34.1737 40.603C33.6586 40.2451 33.0176 40.0996 32.3915 40.1985C31.7655 40.2974 31.2057 40.6326 30.8354 41.1303C30.465 41.6281 30.3145 42.2476 30.4168 42.8526L31.5551 49.6856L20.6578 75.8013ZM82.2949 69.5682L83.6056 74.7951H70.046V69.5703L82.2949 69.5682ZM55.9323 79.4136L58.752 83.6614L51.9097 93.2922L46.1689 89.959L53.395 79.4115L55.9323 79.4136ZM61.6084 79.4136H68.7805L75.8234 89.4341L70.6841 93.0756L61.6084 79.4136ZM65.2731 74.7971H56.8894V69.5703H65.2688L65.2731 74.7971ZM52.1058 69.5703H52.1166V74.7971H38.3953L39.706 69.5703H52.1058ZM31.3762 102.817L37.2398 79.4136H47.665L40.8011 89.4236C40.6229 89.6838 40.5011 89.9761 40.4429 90.283C40.3848 90.5899 40.3916 90.905 40.4629 91.2092C40.5342 91.5135 40.6686 91.8007 40.8579 92.0534C41.0471 92.3061 41.2874 92.5192 41.5642 92.6798L51.3729 98.367C51.894 98.6709 52.5156 98.7708 53.1104 98.646C53.7052 98.5213 54.2281 98.1815 54.572 97.6962L61.548 87.8779L68.0346 97.6421C68.2113 97.9069 68.4419 98.1343 68.7125 98.3101C68.983 98.486 69.2879 98.6067 69.6083 98.6649C69.7507 98.6895 69.8949 98.702 70.0395 98.7024C70.5472 98.7026 71.0418 98.5465 71.4515 98.2566L80.5057 91.8485C81.0069 91.4955 81.3462 90.9676 81.4516 90.3769C81.5571 89.7862 81.4203 89.179 81.0705 88.6841L74.5558 79.4136H84.7611L90.6247 102.817H31.3762ZM101.343 75.8034L90.4458 49.6856L91.5905 42.8526C91.6406 42.5533 91.6292 42.2474 91.557 41.9524C91.4848 41.6573 91.3531 41.3789 91.1696 41.133C90.7988 40.6365 90.2392 40.3026 89.6137 40.2048C88.9882 40.107 88.3481 40.2533 87.8343 40.6116C87.3205 40.9698 86.9749 41.5107 86.8737 42.1151L85.2375 51.8939L82.2561 64.9538H56.2772L89.0898 11.058C89.2484 10.7963 89.352 10.5071 89.3949 10.2067C89.4377 9.90629 89.4189 9.60069 89.3395 9.30733C89.2602 9.01396 89.1218 8.73858 88.9323 8.4969C88.7428 8.25522 88.5059 8.05198 88.2351 7.89878C87.9643 7.74557 87.665 7.64541 87.3541 7.60401C87.0433 7.56261 86.727 7.58078 86.4235 7.65748C86.1199 7.73418 85.8349 7.86791 85.5848 8.05104C85.3347 8.23417 85.1244 8.46311 84.9659 8.72478L50.7412 64.9538H40.9973L78.0459 5.38742H79.5808L86.3154 12.4892C86.9363 13.1454 86.9751 13.3225 87.8568 13.0704C87.8999 13.0579 92.8883 12.0017 95.6412 18.916C98.7347 26.6866 112.831 60.9602 116.511 69.9036L101.343 75.8034Z" fill="black"/>
</svg>
