<svg width="73" height="64" viewBox="0 0 73 64" fill="none" xmlns="http://www.w3.org/2000/svg">
<g clip-path="url(#clip0)">
<path d="M71.86 41.7388C71.755 41.475 61.3113 15.2262 59.26 9.8925C57.565 5.4875 54.6775 4.5 52.8063 4.61125L48.9913 0.44875C48.8615 0.307238 48.7036 0.194268 48.5278 0.117014C48.352 0.0397608 48.1621 -8.74777e-05 47.97 1.44189e-07H24.6975C24.4919 0.000703511 24.2889 0.0471694 24.1034 0.136029C23.9179 0.224888 23.7545 0.353913 23.625 0.51375L20.3088 4.60875C18.4338 4.52625 15.5913 5.535 13.915 9.8925C11.8638 15.2262 1.41504 41.475 1.31504 41.7388C1.17941 42.0793 1.1843 42.4597 1.32863 42.7966C1.47296 43.1335 1.74496 43.3995 2.08504 43.5363L13.4438 48.1075C13.6127 48.1761 13.7936 48.2106 13.9759 48.2091C14.1582 48.2077 14.3385 48.1702 14.5063 48.0989C14.6741 48.0276 14.8262 47.9238 14.9538 47.7936C15.0815 47.6634 15.1821 47.5092 15.25 47.34L20.5 34.3138L21.7288 39.8812L16.3038 62.2887C16.2544 62.4925 16.2519 62.7048 16.2965 62.9097C16.3411 63.1145 16.4317 63.3066 16.5613 63.4714C16.6909 63.6361 16.8563 63.7693 17.0449 63.8609C17.2335 63.9525 17.4404 64 17.65 64H55.525C55.735 64.0006 55.9424 63.9535 56.1314 63.8621C56.3205 63.7708 56.4863 63.6377 56.6164 63.4728C56.7464 63.308 56.8373 63.1157 56.8821 62.9106C56.9269 62.7054 56.9245 62.4928 56.875 62.2887L51.4475 39.8812L52.675 34.3138L57.925 47.34C58.0622 47.6805 58.329 47.9527 58.6668 48.0966C59.0046 48.2405 59.3856 48.2444 59.7263 48.1075L71.0863 43.5363C71.427 43.4002 71.6999 43.1346 71.845 42.7976C71.99 42.4605 71.9955 42.0797 71.86 41.7388V41.7388ZM36.9138 13.2937L29.52 2.77H43.2388L36.9138 13.2937ZM25.3588 2.77H26.1338L35.3525 15.895L33.0163 19.7825L22.6475 6.125L25.3588 2.77ZM13.195 45.02L4.39879 41.4813C6.53379 36.115 14.7075 15.55 16.5 10.8875C17.715 7.73 19.375 7.365 20.125 7.375L31.4813 22.33L23.5913 35.455L22.535 30.67L21.5913 24.8025C21.5319 24.4395 21.3308 24.1149 21.0322 23.9002C20.7335 23.6855 20.3618 23.5982 19.9988 23.6575C19.6358 23.7168 19.3112 23.918 19.0965 24.2166C18.8817 24.5153 18.7944 24.887 18.8538 25.25L19.5138 29.35L13.195 45.02ZM48.935 41.28L49.695 44.4162H41.8325V41.2812L48.935 41.28ZM33.6488 47.1875L35.2838 49.7363L31.3163 55.515L27.9875 53.515L32.1775 47.1862L33.6488 47.1875ZM36.94 47.1875H41.0988L45.1825 53.2L42.2025 55.385L36.94 47.1875ZM39.065 44.4175H34.2038V41.2812H39.0625L39.065 44.4175ZM31.43 41.2812H31.4363V44.4175H23.48L24.24 41.2812H31.43ZM19.41 61.23L22.81 47.1875H28.855L24.875 53.1937C24.7717 53.3498 24.7011 53.5252 24.6674 53.7094C24.6337 53.8935 24.6376 54.0826 24.679 54.2651C24.7203 54.4477 24.7982 54.62 24.908 54.7717C25.0177 54.9233 25.157 55.0512 25.3175 55.1475L31.005 58.56C31.3072 58.7424 31.6676 58.8022 32.0125 58.7274C32.3574 58.6526 32.6606 58.4487 32.86 58.1575L36.905 52.2663L40.6663 58.125C40.7687 58.2839 40.9024 58.4203 41.0593 58.5259C41.2162 58.6314 41.393 58.7038 41.5788 58.7388C41.6613 58.7535 41.745 58.761 41.8288 58.7612C42.1232 58.7614 42.41 58.6677 42.6475 58.4938L47.8975 54.6488C48.1882 54.4369 48.3849 54.1202 48.4461 53.7657C48.5072 53.4113 48.4279 53.047 48.225 52.75L44.4475 47.1875H50.365L53.765 61.23H19.41ZM59.98 45.0213L53.6613 29.35L54.325 25.25C54.3541 25.0704 54.3475 24.8869 54.3056 24.7098C54.2637 24.5328 54.1874 24.3658 54.081 24.2182C53.866 23.9203 53.5415 23.7199 53.1788 23.6612C52.8161 23.6026 52.445 23.6904 52.147 23.9053C51.8491 24.1203 51.6487 24.4448 51.59 24.8075L50.6413 30.675L48.9125 38.5112H33.8488L52.875 6.1725C52.967 6.01549 53.0271 5.84191 53.0519 5.66167C53.0767 5.48143 53.0658 5.29807 53.0198 5.12204C52.9738 4.94602 52.8936 4.78078 52.7837 4.63577C52.6738 4.49075 52.5364 4.3688 52.3794 4.27688C52.2224 4.18495 52.0488 4.12485 51.8686 4.10001C51.6883 4.07517 51.505 4.08607 51.329 4.13209C51.1529 4.17811 50.9877 4.25836 50.8427 4.36824C50.6977 4.47812 50.5757 4.61549 50.4838 4.7725L30.6388 38.5112H24.9888L46.4713 2.77H47.3613L51.2663 7.03125C51.6263 7.425 51.6488 7.53125 52.16 7.38C52.185 7.3725 55.0775 6.73875 56.6738 10.8875C58.4675 15.55 66.6413 36.115 68.775 41.4813L59.98 45.0213Z" fill="black"/>
</g>
<defs>
<clipPath id="clip0">
<rect width="72.125" height="64" fill="white"/>
</clipPath>
</defs>
</svg>
