<svg width="25" height="24" viewBox="0 0 25 24" fill="none" xmlns="http://www.w3.org/2000/svg">
<path d="M12.1845 5.84284C8.77719 5.84284 6.02734 8.5927 6.02734 12C6.02734 15.4073 8.77719 18.1572 12.1845 18.1572C15.5918 18.1572 18.3417 15.4073 18.3417 12C18.3417 8.5927 15.5918 5.84284 12.1845 5.84284ZM12.1845 16.0017C9.98101 16.0017 8.18279 14.2035 8.18279 12C8.18279 9.79651 9.98101 7.9983 12.1845 7.9983C14.388 7.9983 16.1862 9.79651 16.1862 12C16.1862 14.2035 14.388 16.0017 12.1845 16.0017ZM18.5938 4.1557C17.7983 4.1557 17.1559 4.79813 17.1559 5.59367C17.1559 6.38921 17.7983 7.03164 18.5938 7.03164C19.3894 7.03164 20.0318 6.39221 20.0318 5.59367C20.032 5.40477 19.995 5.21767 19.9228 5.0431C19.8506 4.86853 19.7447 4.70992 19.6112 4.57634C19.4776 4.44277 19.319 4.33686 19.1444 4.26468C18.9698 4.1925 18.7827 4.15546 18.5938 4.1557ZM24.1866 12C24.1866 10.3429 24.2016 8.70077 24.1086 7.04665C24.0155 5.12536 23.5772 3.4202 22.1722 2.01525C20.7643 0.607302 19.0621 0.172008 17.1408 0.0789456C15.4837 -0.0141173 13.8416 0.000892936 12.1875 0.000892936C10.5304 0.000892936 8.88827 -0.0141173 7.23415 0.0789456C5.31286 0.172008 3.6077 0.610305 2.20275 2.01525C0.794803 3.42321 0.359508 5.12536 0.266446 7.04665C0.173383 8.70377 0.188393 10.3459 0.188393 12C0.188393 13.6541 0.173383 15.2992 0.266446 16.9533C0.359508 18.8746 0.797805 20.5798 2.20275 21.9847C3.61071 23.3927 5.31286 23.828 7.23415 23.9211C8.89127 24.0141 10.5334 23.9991 12.1875 23.9991C13.8446 23.9991 15.4867 24.0141 17.1408 23.9211C19.0621 23.828 20.7673 23.3897 22.1722 21.9847C23.5802 20.5768 24.0155 18.8746 24.1086 16.9533C24.2046 15.2992 24.1866 13.6571 24.1866 12ZM21.5448 19.0788C21.3257 19.6252 21.0615 20.0334 20.6382 20.4537C20.2149 20.877 19.8096 21.1412 19.2633 21.3603C17.6842 21.9877 13.9347 21.8467 12.1845 21.8467C10.4343 21.8467 6.68178 21.9877 5.10271 21.3633C4.55634 21.1442 4.14807 20.88 3.72778 20.4567C3.3045 20.0334 3.04032 19.6282 2.82117 19.0818C2.19675 17.4997 2.33785 13.7502 2.33785 12C2.33785 10.2498 2.19675 6.49728 2.82117 4.91822C3.04032 4.37185 3.3045 3.96357 3.72778 3.54329C4.15107 3.123 4.55634 2.85582 5.10271 2.63667C6.68178 2.01225 10.4343 2.15335 12.1845 2.15335C13.9347 2.15335 17.6872 2.01225 19.2663 2.63667C19.8127 2.85582 20.2209 3.12 20.6412 3.54329C21.0645 3.96657 21.3287 4.37185 21.5478 4.91822C22.1722 6.49728 22.0312 10.2498 22.0312 12C22.0312 13.7502 22.1722 17.4997 21.5448 19.0788Z" fill="black"/>
</svg>
