<svg width="64" height="64" viewBox="0 0 64 64" fill="none" xmlns="http://www.w3.org/2000/svg">
<path d="M63.0389 38.0123C63.0073 37.8451 62.9756 37.683 62.9464 37.5233C62.1331 33.1209 59.0875 29.9929 57.4431 28.5842C57.7261 28.0431 57.8739 27.4415 57.8738 26.8308V19.455C57.8738 19.119 57.7404 18.7967 57.5028 18.5592C57.2652 18.3216 56.9429 18.1881 56.6069 18.1881H47.3042L37.6543 0.656905C37.5588 0.483065 37.4238 0.334076 37.2602 0.221933C37.0966 0.109791 36.909 0.0376267 36.7124 0.0112514C36.5158 -0.015124 36.3158 0.00502614 36.1284 0.0700794C35.9411 0.135133 35.7716 0.243272 35.6336 0.385791L26.5209 9.81903L16.8672 6.54666C16.549 6.43883 16.201 6.46181 15.8998 6.61053C15.5985 6.75926 15.3687 7.02156 15.2608 7.33973L12.893 14.3215C12.5723 15.2617 12.6347 16.2902 13.0666 17.1847C10.1426 18.705 4.19836 23.001 1.07802 33.8532C-0.534731 39.4604 -0.33963 43.8134 1.67472 47.1555C4.47581 51.81 10.2896 53.5913 16.1489 54.8227C17.242 55.058 18.3564 55.1798 19.4745 55.1863C21.7549 55.1863 23.8022 54.6276 25.5974 53.5127C27.1455 52.5524 28.5011 51.1905 29.7071 49.3877C29.7257 49.6766 29.7464 49.968 29.7692 50.2619C30.3013 57.0587 33.8625 60.3818 36.7561 61.973C39.7067 63.5971 42.9005 64 45.3228 64C45.6598 64 45.9828 63.9924 46.2882 63.9797C49.3794 63.8454 52.4959 63.0587 54.8308 61.826C60.3481 58.9046 60.946 51.2602 61.0106 49.5055C64.2665 44.381 63.5343 40.5588 63.0389 38.0123ZM55.3451 23.1429H45.9068C45.5708 23.1429 45.2486 23.2764 45.011 23.5139C44.7734 23.7515 44.6399 24.0738 44.6399 24.4098C44.6399 24.7458 44.7734 25.068 45.011 25.3056C45.2486 25.5432 45.5708 25.6767 45.9068 25.6767H55.3451V26.8308C55.3451 27.1668 55.2117 27.489 54.9741 27.7266C54.7365 27.9642 54.4142 28.0977 54.0782 28.0977H37.7354C37.3994 28.0977 37.0772 27.9642 36.8396 27.7266C36.602 27.489 36.4685 27.1668 36.4685 26.8308V20.7219H55.3451V23.1429ZM33.9347 24.9875C33.8908 24.7039 33.8307 24.423 33.7548 24.1463C33.8156 24.1146 33.8752 24.0804 33.9347 24.0449V24.9875ZM34.0614 27.8C34.1527 28.1473 34.2935 28.4796 34.4795 28.7869C34.3224 28.9136 34.1514 29.0643 33.9727 29.2417C34.0091 28.7442 34.0382 28.2636 34.0602 27.8H34.0614ZM36.2633 3.38325L44.4157 18.1881H36.8663L37.9381 15.0209C38.0459 14.7027 38.023 14.3547 37.8742 14.0534C37.7255 13.7522 37.4632 13.5223 37.145 13.4145L29.175 10.7185L36.2633 3.38325ZM17.26 9.35282L35.1383 15.4123L33.1771 21.1982C33.0693 21.5164 32.8394 21.7787 32.5382 21.9274C32.2369 22.0761 31.8889 22.0991 31.5707 21.9913L16.0856 16.7451C15.7674 16.6372 15.5051 16.4074 15.3564 16.1061C15.2076 15.8049 15.1847 15.4569 15.2925 15.1387L15.6586 14.058L24.6041 17.0758C24.7622 17.1289 24.9291 17.1504 25.0955 17.139C25.2619 17.1277 25.4244 17.0836 25.5737 17.0095C25.723 16.9353 25.8563 16.8324 25.9659 16.7068C26.0755 16.5811 26.1593 16.435 26.2124 16.277C26.2656 16.1189 26.2871 15.952 26.2757 15.7856C26.2643 15.6192 26.2203 15.4567 26.1461 15.3074C26.072 15.1581 25.9691 15.0248 25.8434 14.9152C25.7177 14.8056 25.5717 14.7218 25.4137 14.6687L16.472 11.6611L17.26 9.35282ZM16.6709 52.351C11.3702 51.2361 6.14683 49.6791 3.84617 45.8569C2.21441 43.147 2.10166 39.4503 3.51297 34.5575C5.47538 27.7379 8.6312 23.8409 10.9319 21.7721C12.7359 20.1518 14.3119 19.365 15.0467 19.0597C15.1215 19.0901 15.1962 19.1193 15.2722 19.1459L30.751 24.3908C30.9073 24.4435 31.0668 24.4858 31.2287 24.5175C32.061 26.5571 31.0906 32.2138 30.2988 36.8278C30.1493 37.7007 29.9947 38.6014 29.849 39.4883C29.7578 40.0444 29.6881 40.726 29.6134 41.4469C29.4487 43.0533 29.2447 45.0512 28.7456 46.0241C25.9103 51.5592 22.1869 53.5089 16.6709 52.351ZM53.6247 59.5494C49.6859 61.636 42.8701 62.4063 37.9976 59.7268C34.5973 57.8569 32.6932 54.6086 32.3385 50.0731C31.0348 33.4034 36.409 30.563 36.4634 30.5377L36.433 30.5516L36.357 30.373C36.7962 30.545 37.2637 30.6331 37.7354 30.6327H54.0782C54.5926 30.6328 55.1016 30.5285 55.5744 30.3261C56.8565 31.3878 59.7552 34.1572 60.4608 37.9857C60.4912 38.1547 60.5229 38.3236 60.5558 38.4925C61.0119 40.8641 61.5693 43.7931 58.9849 47.9688C55.9849 48.4414 52.5782 48.7771 51.3278 47.7154C50.9896 47.4266 50.5373 46.8425 50.5373 45.1044C50.5373 44.4241 50.7362 43.9325 51.1606 43.5588C52.3363 42.5263 54.8814 42.5947 55.7645 42.7074C56.0986 42.7427 56.4334 42.6461 56.6973 42.4381C56.9613 42.2301 57.1335 41.9272 57.1773 41.5941C57.2211 41.2609 57.133 40.9238 56.9318 40.6546C56.7305 40.3855 56.4321 40.2056 56.1002 40.1534C55.6593 40.0951 51.7256 39.639 49.4655 41.6192C48.4811 42.4781 47.963 43.6842 47.963 45.1069C47.963 47.215 48.5179 48.7112 49.6619 49.6816C51.4254 51.1778 54.4051 51.2196 58.3337 50.6736C58.0563 53.0883 57.077 57.7188 53.6247 59.5494Z" fill="black"/>
<path d="M10.7862 27.7506C10.649 27.6563 10.4946 27.5899 10.3318 27.5553C10.169 27.5207 10.001 27.5185 9.8373 27.5488C9.67365 27.5792 9.51758 27.6415 9.37801 27.7322C9.23844 27.8229 9.11812 27.9402 9.02391 28.0774C8.80221 28.4005 3.58643 36.0727 4.64302 41.6585C4.67253 41.8233 4.73442 41.9806 4.8251 42.1213C4.91578 42.262 5.03346 42.3834 5.17134 42.4784C5.30921 42.5734 5.46454 42.6401 5.62836 42.6747C5.79217 42.7093 5.96121 42.711 6.12571 42.6799C6.29022 42.6488 6.44691 42.5853 6.58675 42.4932C6.72658 42.4012 6.84678 42.2823 6.9404 42.1435C7.03401 42.0047 7.09919 41.8487 7.13215 41.6846C7.16511 41.5204 7.16522 41.3514 7.13245 41.1872C6.41792 37.4118 9.76377 31.4803 11.113 29.5115C11.3031 29.2346 11.3754 28.8936 11.3141 28.5634C11.2528 28.2332 11.0629 27.9408 10.7862 27.7506Z" fill="black"/>
</svg>
