<svg width="111" height="111" viewBox="0 0 111 111" fill="none" xmlns="http://www.w3.org/2000/svg">
<path d="M109.48 65.9277C109.425 65.6376 109.37 65.3564 109.32 65.0795C107.909 57.444 102.627 52.019 99.7751 49.5757C100.266 48.6372 100.522 47.5938 100.522 46.5347V33.7422C100.522 33.1595 100.291 32.6006 99.8786 32.1885C99.4665 31.7765 98.9076 31.545 98.3249 31.545H82.1904L65.4539 1.13932C65.2883 0.837815 65.0542 0.579413 64.7704 0.384916C64.4867 0.190418 64.1613 0.0652589 63.8203 0.0195141C63.4794 -0.0262306 63.1324 0.00871721 62.8075 0.121544C62.4825 0.234371 62.1885 0.421924 61.9493 0.669106L46.1444 17.0299L29.4013 11.3544C28.8495 11.1674 28.2459 11.2072 27.7234 11.4651C27.2009 11.7231 26.8023 12.178 26.6152 12.7299L22.5085 24.8389C21.9524 26.4694 22.0605 28.2534 22.8096 29.8047C17.7383 32.4414 7.42875 39.8924 2.0169 58.7141C-0.780207 68.4391 -0.441829 75.9889 3.05181 81.7853C7.90995 89.858 17.9932 92.9473 28.1555 95.0831C30.0513 95.4912 31.9841 95.7025 33.9233 95.7137C37.8783 95.7137 41.4291 94.7447 44.5426 92.8111C47.2277 91.1456 49.5787 88.7835 51.6705 85.6568C51.7028 86.1578 51.7386 86.6632 51.7782 87.1729C52.701 98.9612 58.8775 104.725 63.8961 107.484C69.0135 110.301 74.5528 111 78.7539 111C79.3384 111 79.8987 110.987 80.4282 110.965C85.7895 110.732 91.1948 109.367 95.2443 107.229C104.813 102.163 105.85 88.9044 105.963 85.8612C111.61 76.9733 110.339 70.3441 109.48 65.9277ZM96.1364 40.1384H79.7669C79.1841 40.1384 78.6252 40.3699 78.2132 40.782C77.8011 41.1941 77.5696 41.7529 77.5696 42.3357C77.5696 42.9184 77.8011 43.4773 78.2132 43.8894C78.6252 44.3015 79.1841 44.533 79.7669 44.533H96.1364V46.5347C96.1364 47.1174 95.9049 47.6763 95.4929 48.0884C95.0808 48.5004 94.5219 48.7319 93.9392 48.7319H65.5945C65.0118 48.7319 64.4529 48.5004 64.0409 48.0884C63.6288 47.6763 63.3973 47.1174 63.3973 46.5347V35.9395H96.1364V40.1384ZM59.0028 43.3376C58.9265 42.8458 58.8224 42.3587 58.6908 41.8787C58.7962 41.8237 58.8995 41.7644 59.0028 41.7029V43.3376ZM59.2225 48.2156C59.3809 48.8179 59.6251 49.3944 59.9476 49.9272C59.6751 50.1469 59.3785 50.4084 59.0687 50.716C59.1317 49.8532 59.1822 49.0198 59.2203 48.2156H59.2225ZM63.0413 5.86782L77.1807 31.545H64.0872L65.9461 26.0518C66.1331 25.5 66.0933 24.8964 65.8353 24.3739C65.5774 23.8514 65.1225 23.4528 64.5706 23.2657L50.7477 18.5899L63.0413 5.86782ZM30.0825 16.2213L61.0902 26.7308L57.6888 36.7656C57.5017 37.3175 57.1031 37.7724 56.5806 38.0304C56.0581 38.2883 55.4546 38.3281 54.9027 38.1411L28.0456 29.0423C27.4938 28.8552 27.0389 28.4566 26.7809 27.9341C26.523 27.4116 26.4831 26.808 26.6701 26.2562L27.3051 24.3819L42.82 29.6158C43.0941 29.708 43.3837 29.7453 43.6722 29.7255C43.9608 29.7058 44.2426 29.6294 44.5016 29.5008C44.7606 29.3722 44.9918 29.1938 45.1818 28.9758C45.3719 28.7578 45.5172 28.5045 45.6094 28.2304C45.7016 27.9563 45.7389 27.6667 45.7192 27.3782C45.6994 27.0896 45.6231 26.8078 45.4944 26.5488C45.3658 26.2898 45.1874 26.0586 44.9694 25.8685C44.7514 25.6785 44.4981 25.5332 44.224 25.441L28.7158 20.2247L30.0825 16.2213ZM29.0607 90.7962C19.8674 88.8626 10.8081 86.1622 6.81791 79.5331C3.98784 74.8331 3.79229 68.4215 6.24003 59.9357C9.64358 48.1079 15.117 41.3491 19.1072 37.761C22.2361 34.9507 24.9695 33.5862 26.2439 33.0567C26.3735 33.1094 26.5031 33.16 26.635 33.2061L53.4811 42.3027C53.752 42.3942 54.0288 42.4676 54.3094 42.5225C55.753 46.06 54.0699 55.8708 52.6966 63.8732C52.4374 65.3871 52.1693 66.9494 51.9166 68.4875C51.7584 69.4521 51.6376 70.6342 51.5079 71.8844C51.2223 74.6705 50.8685 78.1356 50.0028 79.8231C45.0853 89.4229 38.6276 92.8045 29.0607 90.7962ZM93.1525 103.281C86.3213 106.9 74.5 108.236 66.0494 103.589C60.1519 100.345 56.8495 94.7117 56.2342 86.8456C53.9733 57.934 63.294 53.0078 63.3885 52.9638L63.3358 52.988L63.2039 52.6782C63.9656 52.9765 64.7765 53.1293 65.5945 53.1286H93.9392C94.8312 53.1288 95.714 52.9479 96.5341 52.5969C98.7578 54.4382 103.785 59.2414 105.009 65.8815C105.062 66.1745 105.117 66.4674 105.174 66.7604C105.965 70.8737 106.932 75.9537 102.449 83.1959C97.246 84.0155 91.3376 84.5977 89.1689 82.7564C88.5823 82.2555 87.7978 81.2425 87.7978 78.2279C87.7978 77.048 88.1428 76.1954 88.8789 75.5472C90.9179 73.7565 95.3322 73.8751 96.8637 74.0707C97.4433 74.1319 98.0239 73.9643 98.4816 73.6036C98.9394 73.2428 99.2381 72.7175 99.3141 72.1397C99.39 71.5618 99.2372 70.9772 98.8882 70.5104C98.5393 70.0436 98.0217 69.7316 97.446 69.641C96.6813 69.5399 89.8589 68.7489 85.9389 72.1832C84.2317 73.673 83.333 75.7648 83.333 78.2323C83.333 81.8885 84.2954 84.4835 86.2795 86.1666C89.3381 88.7616 94.5061 88.8341 101.32 87.887C100.839 92.075 99.1401 100.106 93.1525 103.281Z" fill="black"/>
</svg>
